<?xml version="1.0" encoding="UTF-8"?>
<svg width="185px" height="83px" viewBox="0 0 185 83" version="1.1" xmlns="http://www.w3.org/2000/svg" xmlns:xlink="http://www.w3.org/1999/xlink">
    <!-- Generator: Sketch 55.2 (78181) - https://sketchapp.com -->
    <title>Artboard</title>
    <desc>Created with Sketch.</desc>
    <g id="Artboard" stroke="none" stroke-width="1" fill="none" fill-rule="evenodd">
        <g id="akamai-logo" transform="translate(3.000000, 3.000000)" fill="#FFFFFF" fill-rule="nonzero">
            <g>
                <g id="Group">
                    <path d="M35.5577641,68.9790729 C21.2739328,64.6432455 11.0436213,51.241597 11.0436213,35.2778687 C11.0436213,19.3141404 21.6599823,5.7154089 35.9438136,1.57666452 C37.4880116,1.18249839 37.1019621,0.197083066 35.1717146,0.197083066 C16.0622647,0.197083066 0.427260184,15.9637283 0.427260184,35.4749518 C0.427260184,54.9861753 16.0622647,70.7528205 35.1717146,70.7528205 C37.1019621,70.5557375 37.1019621,69.3732391 35.5577641,68.9790729 Z" id="Shape-2"></path>
                    <path d="M17.6064627,43.5553575 C17.6064627,42.5699422 17.4134379,41.5845268 17.4134379,40.5991115 C17.4134379,25.2266324 29.573997,12.6133162 44.822952,12.6133162 C59.1067832,12.6133162 63.3533277,19.1170574 63.9324019,18.7228912 C64.5114761,18.3287251 58.7207337,5.32124277 41.9275808,5.32124277 C26.8716505,5.32124277 14.5180667,17.7374759 14.5180667,33.3070381 C14.5180667,36.8545333 15.0971409,40.2049454 16.4483142,43.3582744 C17.0273884,44.7378559 17.7994874,44.7378559 17.6064627,43.5553575 Z" id="Shape"></path>
                    <path d="M28.9949227,23.4528848 C36.1368384,20.2995557 45.0159767,20.1024727 53.8951151,23.2558017 C59.8788822,25.4237155 63.1603029,28.3799614 63.5463524,28.1828784 C63.9324019,27.9857953 60.071907,21.6791372 53.1230161,18.9199743 C44.6299272,15.5695622 35.3647394,17.3433098 28.801898,22.6645525 C27.8367742,23.4528848 28.2228237,23.8470509 28.9949227,23.4528848 Z" id="Shape"></path>
                </g>
                <ellipse id="Oval" cx="166.042493" cy="36.4603671" rx="3.66747019" ry="3.74457824"></ellipse>
                <g id="Group" transform="translate(31.890294, 33.848760)">
                    <path d="M20.2675984,18.131642 L13.3187075,18.131642 L19.3024747,5.7154089 L19.3024747,5.7154089 L20.2675984,18.131642 L20.2675984,18.131642 Z M20.4606232,23.6499679 L20.8466727,28.5770445 L28.3746378,28.5770445 L25.8653161,0 L14.476856,0 L0.193024747,28.5770445 L7.91401462,28.5770445 L10.2303116,23.6499679 L20.4606232,23.6499679 L20.4606232,23.6499679 Z" id="Shape"></path>
                    <polygon id="Shape" points="39.1840236 16.1608114 40.1491473 16.1608114 45.746865 8.67165488 52.6957559 8.67165488 45.1677908 18.131642 49.8003847 28.5770445 42.2724196 28.5770445 39.3770484 20.4966388 38.2188999 20.4966388 36.4816772 28.5770445 30.1118605 28.5770445 36.0956277 0 42.4654443 0"></polygon>
                    <path d="M60.8027953,20.2995557 C62.9260675,20.2995557 64.2772407,20.4966388 63.8911912,22.0733033 C63.5051417,24.2412171 62.540018,24.4383001 59.8376715,24.4383001 C58.8725478,24.4383001 57.1353251,24.4383001 57.5213746,22.2703864 C58.1004488,20.4966388 59.2585973,20.2995557 60.8027953,20.2995557 L60.8027953,20.2995557 Z M62.7330427,28.5770445 L69.1028594,28.5770445 L71.6121811,16.1608114 C72.9633543,9.26290408 70.4540326,8.47457182 63.8911912,8.47457182 C59.2585973,8.47457182 54.8190281,8.47457182 53.6608796,14.5841468 L60.0306963,14.5841468 C60.4167458,12.8103993 61.3818695,12.4162331 63.1190922,12.4162331 C65.8214387,12.4162331 65.8214387,13.5987315 65.4353892,15.3724791 L64.8563149,18.5258082 L64.4702654,18.5258082 C64.2772407,16.1608114 61.3818695,16.3578944 59.6446468,16.3578944 C55.0120529,16.3578944 52.3097064,17.934559 51.3445827,22.6645525 C50.3794589,27.7887122 52.6957559,28.7741276 57.1353251,28.7741276 C59.451622,28.7741276 62.3469932,28.3799614 63.5051417,25.6207985 L63.6981665,25.6207985 L62.7330427,28.5770445 L62.7330427,28.5770445 Z" id="Shape"></path>
                    <path d="M82.0355174,8.67165488 L81.4564432,11.4308178 L81.6494679,11.4308178 C83.0006411,9.06582101 85.5099629,8.47457182 87.6332351,8.47457182 C90.3355815,8.47457182 93.037928,8.86873795 92.6518785,12.4162331 L93.037928,12.4162331 C94.0030517,9.65707021 96.8984229,8.47457182 99.2147199,8.47457182 C103.654289,8.47457182 105.584537,10.4454025 104.619413,14.978313 L101.724042,28.5770445 L95.3542249,28.5770445 L97.6705219,16.9491436 C98.0565714,14.7812299 98.4426209,13.4016485 95.9332992,13.4016485 C93.4239775,13.4016485 92.6518785,15.175396 92.0728042,17.1462267 L89.7565073,28.3799614 L83.3866906,28.3799614 L85.8960123,16.3578944 C86.2820618,14.5841468 86.2820618,13.2045654 84.1587896,13.2045654 C81.4564432,13.2045654 80.6843442,14.5841468 80.2982947,16.9491436 L77.9819977,28.1828784 L71.6121811,28.1828784 L75.8587255,8.27748875 L82.0355174,8.27748875 L82.0355174,8.67165488 Z" id="Shape"></path>
                    <path d="M114.849724,20.2995557 C116.972997,20.2995557 118.32417,20.4966388 117.93812,22.0733033 C117.552071,24.2412171 116.586947,24.4383001 113.884601,24.4383001 C112.919477,24.4383001 111.182254,24.4383001 111.568304,22.2703864 C111.954353,20.4966388 113.305526,20.2995557 114.849724,20.2995557 L114.849724,20.2995557 Z M116.586947,28.5770445 L122.956764,28.5770445 L125.466085,16.1608114 C126.817259,9.26290408 124.307937,8.47457182 117.745096,8.47457182 C113.112502,8.47457182 108.672932,8.47457182 107.514784,14.5841468 L113.884601,14.5841468 C114.27065,12.8103993 115.428799,12.4162331 116.972997,12.4162331 C119.675343,12.4162331 119.675343,13.5987315 119.289294,15.3724791 L118.710219,18.5258082 L118.32417,18.5258082 C118.131145,16.1608114 115.235774,16.3578944 113.498551,16.3578944 C108.865957,16.3578944 106.163611,17.934559 105.198487,22.6645525 C104.233363,27.7887122 106.54966,28.7741276 110.989229,28.7741276 C113.305526,28.7741276 116.200898,28.3799614 117.359046,25.6207985 L117.552071,25.6207985 L116.586947,28.5770445 L116.586947,28.5770445 Z" id="Shape"></path>
                    <polygon id="Shape" points="132.221952 28.5770445 125.852135 28.5770445 129.905655 8.67165488 136.275471 8.67165488"></polygon>
                </g>
            </g>
        </g>
    </g>
</svg>